<mxfile host="Electron" agent="Mozilla/5.0 (Windows NT 10.0; Win64; x64) AppleWebKit/537.36 (KHTML, like Gecko) draw.io/25.0.2 Chrome/128.0.6613.186 Electron/32.2.5 Safari/537.36" version="25.0.2">
  <diagram name="Страница — 1" id="HWMidkCqAexvC14g8aIt">
    <mxGraphModel dx="2345" dy="844" grid="1" gridSize="10" guides="1" tooltips="1" connect="1" arrows="1" fold="1" page="1" pageScale="1" pageWidth="827" pageHeight="1169" math="0" shadow="0">
      <root>
        <mxCell id="0" />
        <mxCell id="1" parent="0" />
        <mxCell id="E2xs5zG8V5E_0i2V-LUl-6" style="edgeStyle=orthogonalEdgeStyle;rounded=0;orthogonalLoop=1;jettySize=auto;html=1;exitX=0.5;exitY=1;exitDx=0;exitDy=0;exitPerimeter=0;entryX=0.5;entryY=0;entryDx=0;entryDy=0;" parent="1" source="E2xs5zG8V5E_0i2V-LUl-1" target="E2xs5zG8V5E_0i2V-LUl-5" edge="1">
          <mxGeometry relative="1" as="geometry" />
        </mxCell>
        <mxCell id="E2xs5zG8V5E_0i2V-LUl-1" value="Начало" style="strokeWidth=2;html=1;shape=mxgraph.flowchart.start_1;whiteSpace=wrap;" parent="1" vertex="1">
          <mxGeometry x="364" y="10" width="100" height="60" as="geometry" />
        </mxCell>
        <mxCell id="E2xs5zG8V5E_0i2V-LUl-2" value="" style="strokeWidth=2;html=1;shape=mxgraph.flowchart.annotation_2;align=left;labelPosition=right;pointerEvents=1;" parent="1" vertex="1">
          <mxGeometry x="464" y="40" width="50" height="100" as="geometry" />
        </mxCell>
        <mxCell id="E2xs5zG8V5E_0i2V-LUl-3" value="&lt;div style=&quot;text-align: justify;&quot;&gt;&lt;span style=&quot;background-color: initial;&quot;&gt;#include &amp;lt;iostream&amp;gt;&lt;/span&gt;&lt;/div&gt;&lt;div style=&quot;text-align: justify;&quot;&gt;#include &amp;lt;cmath&amp;gt;&lt;/div&gt;&lt;div style=&quot;text-align: justify;&quot;&gt;&lt;div&gt;#include &amp;lt;ctime&amp;gt;&lt;/div&gt;&lt;div&gt;unsigned int start_time = clock();&lt;/div&gt;&lt;/div&gt;&lt;div style=&quot;text-align: justify;&quot;&gt;int k&lt;/div&gt;&lt;div style=&quot;text-align: justify;&quot;&gt;const double eps = 1e-6&lt;/div&gt;&lt;div style=&quot;text-align: justify;&quot;&gt;&lt;br&gt;&lt;/div&gt;" style="text;html=1;align=center;verticalAlign=middle;resizable=0;points=[];autosize=1;strokeColor=none;fillColor=none;" parent="1" vertex="1">
          <mxGeometry x="490" y="38" width="200" height="110" as="geometry" />
        </mxCell>
        <mxCell id="E2xs5zG8V5E_0i2V-LUl-4" value="" style="endArrow=none;dashed=1;html=1;rounded=0;entryX=0.5;entryY=1;entryDx=0;entryDy=0;entryPerimeter=0;exitX=0;exitY=0.5;exitDx=0;exitDy=0;exitPerimeter=0;" parent="1" source="E2xs5zG8V5E_0i2V-LUl-2" target="E2xs5zG8V5E_0i2V-LUl-1" edge="1">
          <mxGeometry width="50" height="50" relative="1" as="geometry">
            <mxPoint x="390" y="150" as="sourcePoint" />
            <mxPoint x="440" y="100" as="targetPoint" />
            <Array as="points">
              <mxPoint x="414" y="90" />
            </Array>
          </mxGeometry>
        </mxCell>
        <mxCell id="E2xs5zG8V5E_0i2V-LUl-8" style="edgeStyle=orthogonalEdgeStyle;rounded=0;orthogonalLoop=1;jettySize=auto;html=1;exitX=0.5;exitY=1;exitDx=0;exitDy=0;entryX=0.5;entryY=0;entryDx=0;entryDy=0;" parent="1" source="E2xs5zG8V5E_0i2V-LUl-5" target="E2xs5zG8V5E_0i2V-LUl-7" edge="1">
          <mxGeometry relative="1" as="geometry" />
        </mxCell>
        <mxCell id="E2xs5zG8V5E_0i2V-LUl-5" value="int main()" style="shape=process;whiteSpace=wrap;html=1;backgroundOutline=1;" parent="1" vertex="1">
          <mxGeometry x="354" y="130" width="120" height="60" as="geometry" />
        </mxCell>
        <mxCell id="E2xs5zG8V5E_0i2V-LUl-10" style="edgeStyle=orthogonalEdgeStyle;rounded=0;orthogonalLoop=1;jettySize=auto;html=1;exitX=0.5;exitY=1;exitDx=0;exitDy=0;entryX=0.5;entryY=0;entryDx=0;entryDy=0;" parent="1" source="E2xs5zG8V5E_0i2V-LUl-7" target="E2xs5zG8V5E_0i2V-LUl-9" edge="1">
          <mxGeometry relative="1" as="geometry" />
        </mxCell>
        <mxCell id="E2xs5zG8V5E_0i2V-LUl-7" value="setlocale(LC_ALL, &quot;RU&quot;);" style="rounded=0;whiteSpace=wrap;html=1;" parent="1" vertex="1">
          <mxGeometry x="354" y="210" width="120" height="60" as="geometry" />
        </mxCell>
        <mxCell id="E2xs5zG8V5E_0i2V-LUl-15" style="edgeStyle=orthogonalEdgeStyle;rounded=0;orthogonalLoop=1;jettySize=auto;html=1;exitX=0.5;exitY=1;exitDx=0;exitDy=0;entryX=0.5;entryY=0;entryDx=0;entryDy=0;" parent="1" source="E2xs5zG8V5E_0i2V-LUl-9" edge="1">
          <mxGeometry relative="1" as="geometry">
            <mxPoint x="414" y="370" as="targetPoint" />
          </mxGeometry>
        </mxCell>
        <mxCell id="E2xs5zG8V5E_0i2V-LUl-9" value="&lt;div style=&quot;text-align: justify;&quot;&gt;&lt;span style=&quot;background-color: initial;&quot;&gt;double a = 0;&lt;/span&gt;&lt;/div&gt;&lt;div style=&quot;text-align: justify;&quot;&gt;&lt;span style=&quot;background-color: initial;&quot;&gt;double b = 2;&lt;/span&gt;&lt;/div&gt;&lt;div style=&quot;text-align: justify;&quot;&gt;double x = 0;&lt;/div&gt;" style="rounded=0;whiteSpace=wrap;html=1;align=center;" parent="1" vertex="1">
          <mxGeometry x="354" y="290" width="120" height="60" as="geometry" />
        </mxCell>
        <mxCell id="E2xs5zG8V5E_0i2V-LUl-20" style="edgeStyle=orthogonalEdgeStyle;rounded=0;orthogonalLoop=1;jettySize=auto;html=1;exitX=0.5;exitY=1;exitDx=0;exitDy=0;entryX=0.5;entryY=0;entryDx=0;entryDy=0;" parent="1" target="E2xs5zG8V5E_0i2V-LUl-19" edge="1">
          <mxGeometry relative="1" as="geometry">
            <mxPoint x="414" y="350" as="sourcePoint" />
          </mxGeometry>
        </mxCell>
        <mxCell id="E2xs5zG8V5E_0i2V-LUl-23" style="edgeStyle=orthogonalEdgeStyle;rounded=0;orthogonalLoop=1;jettySize=auto;html=1;exitX=0;exitY=0.5;exitDx=0;exitDy=0;entryX=0.5;entryY=0;entryDx=0;entryDy=0;" parent="1" source="E2xs5zG8V5E_0i2V-LUl-19" target="E2xs5zG8V5E_0i2V-LUl-21" edge="1">
          <mxGeometry relative="1" as="geometry" />
        </mxCell>
        <mxCell id="E2xs5zG8V5E_0i2V-LUl-24" style="edgeStyle=orthogonalEdgeStyle;rounded=0;orthogonalLoop=1;jettySize=auto;html=1;exitX=1;exitY=0.5;exitDx=0;exitDy=0;entryX=0.5;entryY=0;entryDx=0;entryDy=0;" parent="1" source="E2xs5zG8V5E_0i2V-LUl-19" target="E2xs5zG8V5E_0i2V-LUl-22" edge="1">
          <mxGeometry relative="1" as="geometry" />
        </mxCell>
        <mxCell id="E2xs5zG8V5E_0i2V-LUl-19" value="&lt;font style=&quot;font-size: 10px;&quot;&gt;if (F(a) * derivF2(a) &amp;gt; 0)&lt;/font&gt;" style="rhombus;whiteSpace=wrap;html=1;" parent="1" vertex="1">
          <mxGeometry x="374" y="370" width="80" height="50" as="geometry" />
        </mxCell>
        <mxCell id="E2xs5zG8V5E_0i2V-LUl-21" value="x = a;" style="rounded=0;whiteSpace=wrap;html=1;" parent="1" vertex="1">
          <mxGeometry x="310" y="440" width="54" height="30" as="geometry" />
        </mxCell>
        <mxCell id="E2xs5zG8V5E_0i2V-LUl-22" value="x = b;" style="rounded=0;whiteSpace=wrap;html=1;" parent="1" vertex="1">
          <mxGeometry x="464" y="440" width="54" height="30" as="geometry" />
        </mxCell>
        <mxCell id="E2xs5zG8V5E_0i2V-LUl-25" value="1" style="text;html=1;align=center;verticalAlign=middle;resizable=0;points=[];autosize=1;strokeColor=none;fillColor=none;" parent="1" vertex="1">
          <mxGeometry x="335" y="358" width="30" height="30" as="geometry" />
        </mxCell>
        <mxCell id="E2xs5zG8V5E_0i2V-LUl-26" value="0" style="text;html=1;align=center;verticalAlign=middle;resizable=0;points=[];autosize=1;strokeColor=none;fillColor=none;" parent="1" vertex="1">
          <mxGeometry x="445" y="358" width="30" height="30" as="geometry" />
        </mxCell>
        <mxCell id="E2xs5zG8V5E_0i2V-LUl-28" value="" style="endArrow=classic;html=1;rounded=0;exitX=0.5;exitY=1;exitDx=0;exitDy=0;" parent="1" source="E2xs5zG8V5E_0i2V-LUl-21" edge="1">
          <mxGeometry width="50" height="50" relative="1" as="geometry">
            <mxPoint x="360" y="540" as="sourcePoint" />
            <mxPoint x="420" y="500" as="targetPoint" />
            <Array as="points">
              <mxPoint x="337" y="500" />
            </Array>
          </mxGeometry>
        </mxCell>
        <mxCell id="E2xs5zG8V5E_0i2V-LUl-29" value="" style="endArrow=classic;html=1;rounded=0;exitX=0.5;exitY=1;exitDx=0;exitDy=0;" parent="1" source="E2xs5zG8V5E_0i2V-LUl-22" edge="1">
          <mxGeometry width="50" height="50" relative="1" as="geometry">
            <mxPoint x="470" y="570" as="sourcePoint" />
            <mxPoint x="420" y="500" as="targetPoint" />
            <Array as="points">
              <mxPoint x="491" y="500" />
            </Array>
          </mxGeometry>
        </mxCell>
        <mxCell id="E2xs5zG8V5E_0i2V-LUl-30" value="" style="endArrow=classic;html=1;rounded=0;" parent="1" edge="1">
          <mxGeometry width="50" height="50" relative="1" as="geometry">
            <mxPoint x="420" y="500" as="sourcePoint" />
            <mxPoint x="420" y="560" as="targetPoint" />
          </mxGeometry>
        </mxCell>
        <mxCell id="E2xs5zG8V5E_0i2V-LUl-33" style="edgeStyle=orthogonalEdgeStyle;rounded=0;orthogonalLoop=1;jettySize=auto;html=1;exitX=0.5;exitY=1;exitDx=0;exitDy=0;entryX=0.5;entryY=0;entryDx=0;entryDy=0;" parent="1" source="E2xs5zG8V5E_0i2V-LUl-31" target="E2xs5zG8V5E_0i2V-LUl-32" edge="1">
          <mxGeometry relative="1" as="geometry" />
        </mxCell>
        <mxCell id="E2xs5zG8V5E_0i2V-LUl-31" value="cout &amp;lt;&amp;lt; NewtonMetod(x) &amp;lt;&amp;lt; endl &amp;lt;&amp;lt; &quot;Количество итераций: &quot; &amp;lt;&amp;lt; k &amp;lt;&amp;lt; endl &amp;lt;&amp;lt; search_time &amp;lt;&amp;lt; &quot;мс&quot;;" style="shape=parallelogram;perimeter=parallelogramPerimeter;whiteSpace=wrap;html=1;fixedSize=1;" parent="1" vertex="1">
          <mxGeometry x="364" y="640" width="120" height="60" as="geometry" />
        </mxCell>
        <mxCell id="E2xs5zG8V5E_0i2V-LUl-32" value="return 0;" style="ellipse;whiteSpace=wrap;html=1;" parent="1" vertex="1">
          <mxGeometry x="364" y="720" width="120" height="80" as="geometry" />
        </mxCell>
        <mxCell id="E2xs5zG8V5E_0i2V-LUl-37" style="edgeStyle=orthogonalEdgeStyle;rounded=0;orthogonalLoop=1;jettySize=auto;html=1;exitX=0.5;exitY=1;exitDx=0;exitDy=0;exitPerimeter=0;entryX=0.5;entryY=0;entryDx=0;entryDy=0;" parent="1" source="E2xs5zG8V5E_0i2V-LUl-35" target="E2xs5zG8V5E_0i2V-LUl-36" edge="1">
          <mxGeometry relative="1" as="geometry" />
        </mxCell>
        <mxCell id="E2xs5zG8V5E_0i2V-LUl-35" value="double Newton Metod(double x)" style="strokeWidth=2;html=1;shape=mxgraph.flowchart.start_1;whiteSpace=wrap;" parent="1" vertex="1">
          <mxGeometry x="110" y="10" width="100" height="60" as="geometry" />
        </mxCell>
        <mxCell id="E2xs5zG8V5E_0i2V-LUl-39" style="edgeStyle=orthogonalEdgeStyle;rounded=0;orthogonalLoop=1;jettySize=auto;html=1;exitX=0.5;exitY=1;exitDx=0;exitDy=0;entryX=0.5;entryY=0;entryDx=0;entryDy=0;" parent="1" source="E2xs5zG8V5E_0i2V-LUl-36" target="E2xs5zG8V5E_0i2V-LUl-38" edge="1">
          <mxGeometry relative="1" as="geometry" />
        </mxCell>
        <mxCell id="E2xs5zG8V5E_0i2V-LUl-36" value="double h = F(x) / derivF(x);" style="rounded=0;whiteSpace=wrap;html=1;" parent="1" vertex="1">
          <mxGeometry x="100" y="90" width="120" height="60" as="geometry" />
        </mxCell>
        <mxCell id="E2xs5zG8V5E_0i2V-LUl-44" style="edgeStyle=orthogonalEdgeStyle;rounded=0;orthogonalLoop=1;jettySize=auto;html=1;exitX=0.5;exitY=1;exitDx=0;exitDy=0;entryX=0.5;entryY=0;entryDx=0;entryDy=0;" parent="1" source="E2xs5zG8V5E_0i2V-LUl-38" target="E2xs5zG8V5E_0i2V-LUl-40" edge="1">
          <mxGeometry relative="1" as="geometry" />
        </mxCell>
        <mxCell id="E2xs5zG8V5E_0i2V-LUl-38" value="&lt;font style=&quot;font-size: 10px;&quot;&gt;while (abs(h) &amp;gt;= derivF(x))&lt;/font&gt;" style="rhombus;whiteSpace=wrap;html=1;" parent="1" vertex="1">
          <mxGeometry x="120" y="170" width="80" height="50" as="geometry" />
        </mxCell>
        <mxCell id="E2xs5zG8V5E_0i2V-LUl-45" style="edgeStyle=orthogonalEdgeStyle;rounded=0;orthogonalLoop=1;jettySize=auto;html=1;exitX=0.5;exitY=1;exitDx=0;exitDy=0;entryX=0.5;entryY=0;entryDx=0;entryDy=0;" parent="1" source="E2xs5zG8V5E_0i2V-LUl-40" target="E2xs5zG8V5E_0i2V-LUl-41" edge="1">
          <mxGeometry relative="1" as="geometry" />
        </mxCell>
        <mxCell id="E2xs5zG8V5E_0i2V-LUl-40" value="k++" style="rounded=0;whiteSpace=wrap;html=1;" parent="1" vertex="1">
          <mxGeometry x="135" y="240" width="50" height="30" as="geometry" />
        </mxCell>
        <mxCell id="E2xs5zG8V5E_0i2V-LUl-46" style="edgeStyle=orthogonalEdgeStyle;rounded=0;orthogonalLoop=1;jettySize=auto;html=1;exitX=0.5;exitY=1;exitDx=0;exitDy=0;entryX=0.5;entryY=0;entryDx=0;entryDy=0;" parent="1" source="E2xs5zG8V5E_0i2V-LUl-41" target="E2xs5zG8V5E_0i2V-LUl-42" edge="1">
          <mxGeometry relative="1" as="geometry" />
        </mxCell>
        <mxCell id="E2xs5zG8V5E_0i2V-LUl-41" value="h = F(x) / derivF(x);" style="rounded=0;whiteSpace=wrap;html=1;" parent="1" vertex="1">
          <mxGeometry x="135" y="290" width="50" height="30" as="geometry" />
        </mxCell>
        <mxCell id="E2xs5zG8V5E_0i2V-LUl-47" style="edgeStyle=orthogonalEdgeStyle;rounded=0;orthogonalLoop=1;jettySize=auto;html=1;exitX=0.5;exitY=1;exitDx=0;exitDy=0;entryX=0;entryY=0.5;entryDx=0;entryDy=0;" parent="1" source="E2xs5zG8V5E_0i2V-LUl-42" target="E2xs5zG8V5E_0i2V-LUl-38" edge="1">
          <mxGeometry relative="1" as="geometry" />
        </mxCell>
        <mxCell id="E2xs5zG8V5E_0i2V-LUl-42" value="x = x - h;" style="rounded=0;whiteSpace=wrap;html=1;" parent="1" vertex="1">
          <mxGeometry x="135" y="340" width="50" height="30" as="geometry" />
        </mxCell>
        <mxCell id="E2xs5zG8V5E_0i2V-LUl-43" value="return x;" style="strokeWidth=2;html=1;shape=mxgraph.flowchart.start_1;whiteSpace=wrap;" parent="1" vertex="1">
          <mxGeometry x="170" y="400" width="100" height="60" as="geometry" />
        </mxCell>
        <mxCell id="E2xs5zG8V5E_0i2V-LUl-48" style="edgeStyle=orthogonalEdgeStyle;rounded=0;orthogonalLoop=1;jettySize=auto;html=1;exitX=1;exitY=0.5;exitDx=0;exitDy=0;entryX=0.5;entryY=0;entryDx=0;entryDy=0;entryPerimeter=0;" parent="1" source="E2xs5zG8V5E_0i2V-LUl-38" target="E2xs5zG8V5E_0i2V-LUl-43" edge="1">
          <mxGeometry relative="1" as="geometry" />
        </mxCell>
        <mxCell id="E2xs5zG8V5E_0i2V-LUl-49" value="double derivF2(double x)" style="strokeWidth=2;html=1;shape=mxgraph.flowchart.start_1;whiteSpace=wrap;" parent="1" vertex="1">
          <mxGeometry x="-90" y="10" width="100" height="60" as="geometry" />
        </mxCell>
        <mxCell id="E2xs5zG8V5E_0i2V-LUl-50" value="double derivF(double x)" style="strokeWidth=2;html=1;shape=mxgraph.flowchart.start_1;whiteSpace=wrap;" parent="1" vertex="1">
          <mxGeometry x="-250" y="10" width="100" height="60" as="geometry" />
        </mxCell>
        <mxCell id="E2xs5zG8V5E_0i2V-LUl-51" value="double F(double x)" style="strokeWidth=2;html=1;shape=mxgraph.flowchart.start_1;whiteSpace=wrap;" parent="1" vertex="1">
          <mxGeometry x="-413.5" y="10" width="100" height="60" as="geometry" />
        </mxCell>
        <mxCell id="E2xs5zG8V5E_0i2V-LUl-52" value="return 0.25 * pow(x,3) + x - 1.2502;" style="strokeWidth=2;html=1;shape=mxgraph.flowchart.start_1;whiteSpace=wrap;" parent="1" vertex="1">
          <mxGeometry x="-413" y="90" width="100" height="60" as="geometry" />
        </mxCell>
        <mxCell id="E2xs5zG8V5E_0i2V-LUl-53" value="return (0.75 * pow(x, 2)) + 1;" style="strokeWidth=2;html=1;shape=mxgraph.flowchart.start_1;whiteSpace=wrap;" parent="1" vertex="1">
          <mxGeometry x="-250" y="90" width="100" height="60" as="geometry" />
        </mxCell>
        <mxCell id="E2xs5zG8V5E_0i2V-LUl-54" value="return 1.5 * x;" style="strokeWidth=2;html=1;shape=mxgraph.flowchart.start_1;whiteSpace=wrap;" parent="1" vertex="1">
          <mxGeometry x="-90" y="90" width="100" height="60" as="geometry" />
        </mxCell>
        <mxCell id="E2xs5zG8V5E_0i2V-LUl-55" style="edgeStyle=orthogonalEdgeStyle;rounded=0;orthogonalLoop=1;jettySize=auto;html=1;exitX=0.5;exitY=1;exitDx=0;exitDy=0;exitPerimeter=0;entryX=0.5;entryY=0;entryDx=0;entryDy=0;entryPerimeter=0;" parent="1" source="E2xs5zG8V5E_0i2V-LUl-51" target="E2xs5zG8V5E_0i2V-LUl-52" edge="1">
          <mxGeometry relative="1" as="geometry" />
        </mxCell>
        <mxCell id="E2xs5zG8V5E_0i2V-LUl-56" style="edgeStyle=orthogonalEdgeStyle;rounded=0;orthogonalLoop=1;jettySize=auto;html=1;exitX=0.5;exitY=1;exitDx=0;exitDy=0;exitPerimeter=0;entryX=0.5;entryY=0;entryDx=0;entryDy=0;entryPerimeter=0;" parent="1" source="E2xs5zG8V5E_0i2V-LUl-50" target="E2xs5zG8V5E_0i2V-LUl-53" edge="1">
          <mxGeometry relative="1" as="geometry" />
        </mxCell>
        <mxCell id="E2xs5zG8V5E_0i2V-LUl-57" style="edgeStyle=orthogonalEdgeStyle;rounded=0;orthogonalLoop=1;jettySize=auto;html=1;exitX=0.5;exitY=1;exitDx=0;exitDy=0;exitPerimeter=0;entryX=0.5;entryY=0;entryDx=0;entryDy=0;entryPerimeter=0;" parent="1" source="E2xs5zG8V5E_0i2V-LUl-49" target="E2xs5zG8V5E_0i2V-LUl-54" edge="1">
          <mxGeometry relative="1" as="geometry" />
        </mxCell>
        <mxCell id="E2xs5zG8V5E_0i2V-LUl-58" value="{" style="text;html=1;align=center;verticalAlign=middle;resizable=0;points=[];autosize=1;strokeColor=none;fillColor=none;" parent="1" vertex="1">
          <mxGeometry x="-435" y="28" width="30" height="30" as="geometry" />
        </mxCell>
        <mxCell id="E2xs5zG8V5E_0i2V-LUl-59" value="}" style="text;html=1;align=center;verticalAlign=middle;resizable=0;points=[];autosize=1;strokeColor=none;fillColor=none;" parent="1" vertex="1">
          <mxGeometry x="-315" y="98" width="30" height="30" as="geometry" />
        </mxCell>
        <mxCell id="E2xs5zG8V5E_0i2V-LUl-60" value="{" style="text;html=1;align=center;verticalAlign=middle;resizable=0;points=[];autosize=1;strokeColor=none;fillColor=none;" parent="1" vertex="1">
          <mxGeometry x="-285" y="18" width="30" height="30" as="geometry" />
        </mxCell>
        <mxCell id="E2xs5zG8V5E_0i2V-LUl-61" value="}" style="text;html=1;align=center;verticalAlign=middle;resizable=0;points=[];autosize=1;strokeColor=none;fillColor=none;" parent="1" vertex="1">
          <mxGeometry x="-155" y="98" width="30" height="30" as="geometry" />
        </mxCell>
        <mxCell id="E2xs5zG8V5E_0i2V-LUl-62" value="{" style="text;html=1;align=center;verticalAlign=middle;resizable=0;points=[];autosize=1;strokeColor=none;fillColor=none;" parent="1" vertex="1">
          <mxGeometry x="-115" y="18" width="30" height="30" as="geometry" />
        </mxCell>
        <mxCell id="E2xs5zG8V5E_0i2V-LUl-64" value="}" style="text;html=1;align=center;verticalAlign=middle;resizable=0;points=[];autosize=1;strokeColor=none;fillColor=none;" parent="1" vertex="1">
          <mxGeometry x="15" y="118" width="30" height="30" as="geometry" />
        </mxCell>
        <mxCell id="E2xs5zG8V5E_0i2V-LUl-65" value="{" style="text;html=1;align=center;verticalAlign=middle;resizable=0;points=[];autosize=1;strokeColor=none;fillColor=none;" parent="1" vertex="1">
          <mxGeometry x="65" y="28" width="30" height="30" as="geometry" />
        </mxCell>
        <mxCell id="E2xs5zG8V5E_0i2V-LUl-66" value="}" style="text;html=1;align=center;verticalAlign=middle;resizable=0;points=[];autosize=1;strokeColor=none;fillColor=none;" parent="1" vertex="1">
          <mxGeometry x="275" y="458" width="30" height="30" as="geometry" />
        </mxCell>
        <mxCell id="E2xs5zG8V5E_0i2V-LUl-67" value="{" style="text;html=1;align=center;verticalAlign=middle;resizable=0;points=[];autosize=1;strokeColor=none;fillColor=none;" parent="1" vertex="1">
          <mxGeometry x="75" y="168" width="30" height="30" as="geometry" />
        </mxCell>
        <mxCell id="E2xs5zG8V5E_0i2V-LUl-68" value="}" style="text;html=1;align=center;verticalAlign=middle;resizable=0;points=[];autosize=1;strokeColor=none;fillColor=none;" parent="1" vertex="1">
          <mxGeometry x="185" y="358" width="30" height="30" as="geometry" />
        </mxCell>
        <mxCell id="E2xs5zG8V5E_0i2V-LUl-69" value="{" style="text;html=1;align=center;verticalAlign=middle;resizable=0;points=[];autosize=1;strokeColor=none;fillColor=none;" parent="1" vertex="1">
          <mxGeometry x="295" y="168" width="30" height="30" as="geometry" />
        </mxCell>
        <mxCell id="E2xs5zG8V5E_0i2V-LUl-70" value="}" style="text;html=1;align=center;verticalAlign=middle;resizable=0;points=[];autosize=1;strokeColor=none;fillColor=none;" parent="1" vertex="1">
          <mxGeometry x="490" y="770" width="30" height="30" as="geometry" />
        </mxCell>
        <mxCell id="VN6rFEogFcglFQRjum4i-1" value="1" style="text;html=1;align=center;verticalAlign=middle;resizable=0;points=[];autosize=1;strokeColor=none;fillColor=none;" parent="1" vertex="1">
          <mxGeometry x="95" y="158" width="30" height="30" as="geometry" />
        </mxCell>
        <mxCell id="VN6rFEogFcglFQRjum4i-2" value="0" style="text;html=1;align=center;verticalAlign=middle;resizable=0;points=[];autosize=1;strokeColor=none;fillColor=none;" parent="1" vertex="1">
          <mxGeometry x="185" y="158" width="30" height="30" as="geometry" />
        </mxCell>
        <mxCell id="VGZHtCRnHe86U3nshFFL-2" style="edgeStyle=orthogonalEdgeStyle;rounded=0;orthogonalLoop=1;jettySize=auto;html=1;exitX=0.5;exitY=1;exitDx=0;exitDy=0;entryX=0.5;entryY=0;entryDx=0;entryDy=0;" edge="1" parent="1" source="VGZHtCRnHe86U3nshFFL-1" target="E2xs5zG8V5E_0i2V-LUl-31">
          <mxGeometry relative="1" as="geometry" />
        </mxCell>
        <mxCell id="VGZHtCRnHe86U3nshFFL-1" value="&lt;div&gt;unsigned int end_time = clock();&lt;/div&gt;&lt;div&gt;unsigned int search_time = end_time - start_time;&lt;/div&gt;" style="rounded=0;whiteSpace=wrap;html=1;" vertex="1" parent="1">
          <mxGeometry x="364" y="560" width="120" height="60" as="geometry" />
        </mxCell>
      </root>
    </mxGraphModel>
  </diagram>
</mxfile>
